<svg id="Capa_1" enable-background="new 0 0 512 512" height="512" viewBox="0 0 512 512" width="512" xmlns="http://www.w3.org/2000/svg"><g><path d="m377.709 0h-342.681v512h441.943v-412.737zm8.787 51.213 39.262 39.263h-39.262zm-321.468 430.787v-452h291.468v90.476h90.476v361.524z"/><path d="m95.064 241.202h321.871v30h-321.871z"/><path d="m95.064 120.5h100.888v30h-100.888z"/><path d="m95.064 60.25h100.888v30h-100.888z"/><path d="m416.924 301.25h-321.848v150.5h321.848zm-30 60.25h-201.8v-30.25h201.8zm-261.848-30.25h30.048v30.25h-30.048zm0 60.25h30.048v30.25h-30.048zm261.848 30.25h-201.8v-30.25h201.8z"/></g></svg>